# xmcd
#
# Track frame offsets: 
#        150
#        21196
#        49638
#        74399
#        97488
#        115801
#        133375
#        154076
#        189169
#
# Disc length: 2776 seconds
#
# Revision: 0
# Processed by: cddbd v1.5.2PL0 Copyright (c) Steve Scherf et al.
# Submitted via: ExactAudioCopyFreeDBPlugin 1.0
#
DISCID=7e0ad609
DTITLE=윤종신 - 行步2013
DYEAR=2013
DGENRE=Ballad
TTITLE0=사랑의 역사
TTITLE1=거리에서
TTITLE2=이별택시
TTITLE3=부디
TTITLE4=고속도로 로맨스
TTITLE5=바캉스 매니아
TTITLE6=이별을 앞두고
TTITLE7=길
TTITLE8=1월부터 6월까지
EXTD=
EXTT0=
EXTT1=
EXTT2=
EXTT3=
EXTT4=
EXTT5=
EXTT6=
EXTT7=
EXTT8=
PLAYORDER=
